<svg width="17" height="16" viewBox="0 0 17 16" fill="none" xmlns="http://www.w3.org/2000/svg">
<g clip-path="url(#clip0_69_372)">
<path d="M14.4184 4.74113C14.4285 4.88325 14.4285 5.02541 14.4285 5.16753C14.4285 9.50253 11.1512 14.4975 5.16133 14.4975C3.31595 14.4975 1.60168 13.9594 0.159668 13.0254C0.421861 13.0558 0.673935 13.066 0.946216 13.066C2.46887 13.066 3.87057 12.5483 4.98989 11.665C3.55797 11.6345 2.35797 10.6904 1.94452 9.39088C2.14621 9.42131 2.34788 9.44163 2.55966 9.44163C2.85209 9.44163 3.14455 9.401 3.4168 9.32997C1.92437 9.02538 0.805016 7.7056 0.805016 6.11169V6.07109C1.23861 6.31475 1.74285 6.46703 2.27726 6.48731C1.39996 5.89847 0.825192 4.89341 0.825192 3.75634C0.825192 3.14722 0.986506 2.58884 1.26888 2.10153C2.87224 4.09138 5.28232 5.39084 7.9848 5.533C7.93439 5.28934 7.90413 5.03556 7.90413 4.78175C7.90413 2.97463 9.35623 1.50256 11.1613 1.50256C12.0991 1.50256 12.9461 1.8985 13.5411 2.53809C14.2772 2.39597 14.9831 2.12184 15.6083 1.74622C15.3662 2.50766 14.852 3.14725 14.1764 3.55331C14.8318 3.48228 15.4671 3.2995 16.052 3.04572C15.6084 3.69544 15.0537 4.27409 14.4184 4.74113Z" fill="black"/>
</g>
<defs>
<clipPath id="clip0_69_372">
<rect width="15.8924" height="16" fill="white" transform="translate(0.159668)"/>
</clipPath>
</defs>
</svg>
